<svg width="12" height="23" viewBox="0 0 12 23" fill="none" xmlns="http://www.w3.org/2000/svg">
<mask id="mask0_2041_60" style="mask-type:luminance" maskUnits="userSpaceOnUse" x="0" y="0" width="12" height="23">
<path d="M11.835 0H0V23H11.835V0Z" fill="white"/>
</mask>
<g mask="url(#mask0_2041_60)">
<path d="M11.0736 12.539H7.59602C7.59602 13.7146 7.59602 14.8728 7.59602 16.031V22.9996H3.4722C3.47065 22.7562 3.46839 22.513 3.46754 22.27C3.46683 22.0176 3.46754 21.7653 3.46754 21.5129V12.5384H0V8.40697C0.230105 8.39748 0.460352 8.40385 0.690316 8.40272C0.916325 8.40158 1.14318 8.40272 1.36975 8.40272H3.4674V8.18686C3.4674 7.26621 3.46457 6.34456 3.46867 5.42349C3.46111 4.7664 3.55157 4.11188 3.73706 3.48162C4.30208 1.66312 5.52832 0.564997 7.3717 0.147447C7.98224 0.0192187 8.60705 -0.0272191 9.22978 0.00934888C10.053 0.0440504 10.8758 0.0903662 11.6988 0.13215C11.7412 0.134274 11.7835 0.141923 11.8351 0.148155V3.88444H11.6282L9.64634 3.88515C9.31898 3.87793 8.99233 3.91878 8.67676 4.00639C8.41207 4.07317 8.17336 4.21785 7.99135 4.4218C7.80935 4.62576 7.69237 4.87966 7.65548 5.15083C7.61765 5.37456 7.59875 5.60109 7.59898 5.82801C7.5922 6.62926 7.59602 7.43051 7.59644 8.23176C7.59644 8.28119 7.60251 8.33091 7.60717 8.40173H11.589C11.4164 9.78766 11.2468 11.1495 11.0736 12.5394" fill="#F6EFD8"/>
</g>
</svg>
