<svg width="33" height="33" viewBox="0 0 33 33" fill="none" xmlns="http://www.w3.org/2000/svg">
<mask id="mask0_2047_146" style="mask-type:luminance" maskUnits="userSpaceOnUse" x="0" y="0" width="33" height="33">
<path d="M32.3605 0H0V32.3605H32.3605V0Z" fill="white"/>
</mask>
<g mask="url(#mask0_2047_146)">
<path d="M8.28287 0H24.0819C24.4125 0.0527943 24.7469 0.0875905 25.0729 0.160783C28.7388 0.984613 31.0895 3.20269 32.0954 6.82366C32.2265 7.29569 32.274 7.79052 32.3595 8.27478V24.0665C32.3405 24.1687 32.3148 24.2702 32.3036 24.3734C32.223 25.2553 31.9958 26.1175 31.6313 26.9246C29.9879 30.3987 27.2361 32.271 23.3878 32.324C18.5861 32.3912 13.7825 32.3439 8.97984 32.3382C7.15388 32.3642 5.36688 31.8096 3.87684 30.7543C1.30506 28.9224 0.0158037 26.3988 0.00764087 23.2424C-0.00468346 18.5263 -0.00340301 13.81 0.0114822 9.09357C0.00161141 8.48314 0.0566597 7.87338 0.1757 7.27457C0.983104 3.61113 3.21421 1.27186 6.82916 0.265411C7.30165 0.133905 7.79766 0.0863906 8.28287 0ZM16.1701 29.4743C18.5077 29.4743 20.8455 29.4743 23.1835 29.4743C23.9214 29.4922 24.6569 29.3837 25.3582 29.1535C27.9314 28.243 29.4864 26.0264 29.4902 23.2331C29.497 18.5282 29.5051 13.8232 29.478 9.11829C29.481 8.40395 29.3726 7.6935 29.1568 7.01252C28.2941 4.42992 26.0448 2.87417 23.255 2.86985C18.5374 2.86241 13.8197 2.85425 9.10228 2.88233C8.38772 2.88132 7.67748 2.99292 6.9977 3.21301C4.43192 4.07956 2.88433 6.29764 2.87641 9.06166C2.86264 13.7979 2.86216 18.5344 2.87497 23.271C2.87809 25.3912 3.72319 27.1034 5.44579 28.356C6.52807 29.1227 7.83088 29.5158 9.15678 29.4758C11.4947 29.4705 13.8324 29.4743 16.1701 29.4743Z" fill="#350D0D"/>
<path d="M24.5207 16.1832C24.5182 17.8313 24.0269 19.4416 23.1089 20.8106C22.191 22.1797 20.8875 23.246 19.3634 23.8747C17.8393 24.5034 16.1628 24.6664 14.5461 24.343C12.9293 24.0195 11.4447 23.2243 10.2801 22.0577C9.11538 20.8911 8.32287 19.4056 8.00271 17.7888C7.68254 16.1721 7.84909 14.4968 8.48131 12.9747C9.11353 11.4526 10.183 10.152 11.5546 9.23735C12.9262 8.32268 14.5383 7.83499 16.1872 7.83594C18.3972 7.84632 20.5135 8.72965 22.0746 10.2933C23.6357 11.857 24.515 13.9742 24.5207 16.1832ZM21.6443 16.158C21.6419 15.0782 21.3192 14.0234 20.7171 13.1269C20.115 12.2305 19.2604 11.5326 18.2615 11.1216C17.2625 10.7106 16.1641 10.6049 15.105 10.8179C14.046 11.0308 13.0739 11.5529 12.3117 12.3181C11.5496 13.0833 11.0315 14.0572 10.8231 15.1167C10.6147 16.1762 10.7252 17.2736 11.1408 18.2703C11.5564 19.267 12.2583 20.1181 13.1579 20.716C14.0574 21.3139 15.1141 21.6318 16.1944 21.6294C17.6425 21.6248 19.0297 21.0461 20.0514 20.0203C21.0731 18.9945 21.646 17.6055 21.6443 16.158Z" fill="#350D0D"/>
<path d="M24.8709 5.41309C25.2861 5.41495 25.6914 5.53994 26.0354 5.77221C26.3795 6.00449 26.6468 6.3336 26.8036 6.71786C26.9603 7.10212 26.9995 7.52425 26.9161 7.93077C26.8326 8.33729 26.6304 8.70991 26.3349 9.00144C26.0394 9.29297 25.664 9.49029 25.2563 9.56841C24.8485 9.64653 24.4268 9.60193 24.0444 9.44026C23.662 9.27859 23.3362 9.00713 23.1083 8.66026C22.8804 8.31339 22.7607 7.90671 22.7642 7.49174C22.7729 6.93846 22.9984 6.41069 23.3924 6.02196C23.7864 5.63322 24.3173 5.41459 24.8709 5.41309Z" fill="#350D0D"/>
</g>
</svg>
